<svg width="87" height="16" viewBox="0 0 87 16" fill="none" xmlns="http://www.w3.org/2000/svg">
  <path d="M11.6836 15H8.68555L3.28516 5.78125V15H0.482422V0.996094H3.48047L8.88086 10.2246V0.996094H11.6836V15ZM38.9688 15H35.9707L30.5703 5.78125V15H27.7676V0.996094H30.7656L36.166 10.2246V0.996094H38.9688V15Z" fill="#5A9C52"/>
  <path d="M22.5332 9.4043V6.60156C22.5332 6.21745 22.4583 5.85612 22.3086 5.51758C22.1654 5.17253 21.9668 4.87305 21.7129 4.61914C21.459 4.36523 21.1595 4.16667 20.8145 4.02344C20.4759 3.8737 20.1146 3.79883 19.7305 3.79883C19.3464 3.79883 18.9818 3.8737 18.6367 4.02344C18.2982 4.16667 18.002 4.36523 17.748 4.61914C17.4941 4.87305 17.2923 5.17253 17.1426 5.51758C16.9993 5.85612 16.9277 6.21745 16.9277 6.60156V9.4043H22.5332ZM25.3359 15H22.5332V12.1973H16.9277V15H14.1348V6.60156C14.1348 5.82682 14.2812 5.10091 14.5742 4.42383C14.8672 3.74023 15.2643 3.14453 15.7656 2.63672C16.2734 2.12891 16.8659 1.72852 17.543 1.43555C18.2266 1.14258 18.9557 0.996094 19.7305 0.996094C20.5052 0.996094 21.2311 1.14258 21.9082 1.43555C22.5918 1.72852 23.1875 2.12891 23.6953 2.63672C24.2031 3.14453 24.6035 3.74023 24.8965 4.42383C25.1895 5.10091 25.3359 5.82682 25.3359 6.60156V15ZM55.2969 8.05664C55.2969 8.7207 55.209 9.36198 55.0332 9.98047C54.8639 10.5924 54.623 11.1686 54.3105 11.709C53.998 12.2428 53.6204 12.7311 53.1777 13.1738C52.735 13.6165 52.2467 13.9974 51.7129 14.3164C51.179 14.6289 50.6029 14.8698 49.9844 15.0391C49.3659 15.2148 48.7246 15.3027 48.0605 15.3027C47.3965 15.3027 46.7552 15.2148 46.1367 15.0391C45.5247 14.8698 44.9486 14.6289 44.4082 14.3164C43.8743 13.9974 43.3861 13.6165 42.9434 13.1738C42.5007 12.7311 42.1198 12.2428 41.8008 11.709C41.4883 11.1686 41.2441 10.5924 41.0684 9.98047C40.8991 9.36198 40.8145 8.7207 40.8145 8.05664C40.8145 7.39258 40.8991 6.7513 41.0684 6.13281C41.2441 5.51432 41.4883 4.93815 41.8008 4.4043C42.1198 3.87044 42.5007 3.38216 42.9434 2.93945C43.3861 2.49674 43.8743 2.11914 44.4082 1.80664C44.9486 1.49414 45.5247 1.25326 46.1367 1.08398C46.7552 0.908203 47.3965 0.820312 48.0605 0.820312C48.7246 0.820312 49.3659 0.908203 49.9844 1.08398C50.6029 1.25326 51.179 1.49414 51.7129 1.80664C52.2467 2.11914 52.735 2.49674 53.1777 2.93945C53.6204 3.38216 53.998 3.87044 54.3105 4.4043C54.623 4.93815 54.8639 5.51432 55.0332 6.13281C55.209 6.7513 55.2969 7.39258 55.2969 8.05664ZM52.5137 8.05664C52.5137 7.44466 52.3965 6.86849 52.1621 6.32812C51.9277 5.78125 51.6087 5.30924 51.2051 4.91211C50.8079 4.50846 50.3359 4.18945 49.7891 3.95508C49.2487 3.7207 48.6725 3.60352 48.0605 3.60352C47.4421 3.60352 46.8626 3.7207 46.3223 3.95508C45.7819 4.18945 45.3099 4.50846 44.9062 4.91211C44.5026 5.30924 44.1836 5.78125 43.9492 6.32812C43.7148 6.86849 43.5977 7.44466 43.5977 8.05664C43.5977 8.66862 43.7148 9.24479 43.9492 9.78516C44.1836 10.319 44.5026 10.7878 44.9062 11.1914C45.3099 11.5951 45.7819 11.9141 46.3223 12.1484C46.8626 12.3828 47.4421 12.5 48.0605 12.5C48.6725 12.5 49.2487 12.3828 49.7891 12.1484C50.3359 11.9141 50.8079 11.5951 51.2051 11.1914C51.6087 10.7878 51.9277 10.319 52.1621 9.78516C52.3965 9.24479 52.5137 8.66862 52.5137 8.05664ZM70.8633 8.05664C70.8633 8.7207 70.7754 9.36198 70.5996 9.98047C70.4303 10.5924 70.1895 11.1686 69.877 11.709C69.5645 12.2428 69.1868 12.7311 68.7441 13.1738C68.3014 13.6165 67.8132 13.9974 67.2793 14.3164C66.7454 14.6289 66.1693 14.8698 65.5508 15.0391C64.9323 15.2148 64.291 15.3027 63.627 15.3027C62.9629 15.3027 62.3216 15.2148 61.7031 15.0391C61.0911 14.8698 60.515 14.6289 59.9746 14.3164C59.4408 13.9974 58.9525 13.6165 58.5098 13.1738C58.0671 12.7311 57.6862 12.2428 57.3672 11.709C57.0547 11.1686 56.8105 10.5924 56.6348 9.98047C56.4655 9.36198 56.3809 8.7207 56.3809 8.05664C56.3809 7.39258 56.4655 6.7513 56.6348 6.13281C56.8105 5.51432 57.0547 4.93815 57.3672 4.4043C57.6862 3.87044 58.0671 3.38216 58.5098 2.93945C58.9525 2.49674 59.4408 2.11914 59.9746 1.80664C60.515 1.49414 61.0911 1.25326 61.7031 1.08398C62.3216 0.908203 62.9629 0.820312 63.627 0.820312C64.291 0.820312 64.9323 0.908203 65.5508 1.08398C66.1693 1.25326 66.7454 1.49414 67.2793 1.80664C67.8132 2.11914 68.3014 2.49674 68.7441 2.93945C69.1868 3.38216 69.5645 3.87044 69.877 4.4043C70.1895 4.93815 70.4303 5.51432 70.5996 6.13281C70.7754 6.7513 70.8633 7.39258 70.8633 8.05664ZM68.0801 8.05664C68.0801 7.44466 67.9629 6.86849 67.7285 6.32812C67.4941 5.78125 67.1751 5.30924 66.7715 4.91211C66.3743 4.50846 65.9023 4.18945 65.3555 3.95508C64.8151 3.7207 64.2389 3.60352 63.627 3.60352C63.0085 3.60352 62.429 3.7207 61.8887 3.95508C61.3483 4.18945 60.8763 4.50846 60.4727 4.91211C60.069 5.30924 59.75 5.78125 59.5156 6.32812C59.2812 6.86849 59.1641 7.44466 59.1641 8.05664C59.1641 8.66862 59.2812 9.24479 59.5156 9.78516C59.75 10.319 60.069 10.7878 60.4727 11.1914C60.8763 11.5951 61.3483 11.9141 61.8887 12.1484C62.429 12.3828 63.0085 12.5 63.627 12.5C64.2389 12.5 64.8151 12.3828 65.3555 12.1484C65.9023 11.9141 66.3743 11.5951 66.7715 11.1914C67.1751 10.7878 67.4941 10.319 67.7285 9.78516C67.9629 9.24479 68.0801 8.66862 68.0801 8.05664ZM86.6055 15H83.8125V5C83.8125 4.80469 83.7734 4.6224 83.6953 4.45312C83.6237 4.28385 83.5228 4.13737 83.3926 4.01367C83.2689 3.88346 83.1224 3.78255 82.9531 3.71094C82.7839 3.63932 82.6016 3.60352 82.4062 3.60352C82.2109 3.60352 82.0286 3.63932 81.8594 3.71094C81.6901 3.78255 81.5404 3.88346 81.4102 4.01367C81.2865 4.13737 81.1888 4.28385 81.1172 4.45312C81.0456 4.6224 81.0098 4.80469 81.0098 5V15H78.207V5C78.207 4.80469 78.1712 4.6224 78.0996 4.45312C78.028 4.28385 77.9271 4.13737 77.7969 4.01367C77.6732 3.88346 77.5267 3.78255 77.3574 3.71094C77.1882 3.63932 77.0059 3.60352 76.8105 3.60352C76.6152 3.60352 76.4329 3.63932 76.2637 3.71094C76.0944 3.78255 75.9447 3.88346 75.8145 4.01367C75.6908 4.13737 75.5931 4.28385 75.5215 4.45312C75.4499 4.6224 75.4141 4.80469 75.4141 5V15H72.6113V5C72.6113 4.42057 72.7188 3.87695 72.9336 3.36914C73.1549 2.85482 73.4544 2.40885 73.832 2.03125C74.2161 1.64714 74.6621 1.34766 75.1699 1.13281C75.6842 0.911458 76.2311 0.800781 76.8105 0.800781C77.3314 0.800781 77.8327 0.895182 78.3145 1.08398C78.7962 1.26628 79.2292 1.5332 79.6133 1.88477C79.9974 1.5332 80.4271 1.26628 80.9023 1.08398C81.3841 0.895182 81.8854 0.800781 82.4062 0.800781C82.9857 0.800781 83.5293 0.911458 84.0371 1.13281C84.5514 1.34766 84.9974 1.64714 85.375 2.03125C85.7591 2.40885 86.0586 2.85482 86.2734 3.36914C86.4948 3.87695 86.6055 4.42057 86.6055 5V15Z" fill="#F7D9A4"/>
</svg>
